<svg xmlns="http://www.w3.org/2000/svg" viewBox="0 2.049999952316284 76.3499984741211 42.04999923706055" data-asc="0.8" width="76.3499984741211" height="42.04999923706055"><defs/><g fill="#5b6fbe"><g transform="translate(0, 0)"><path d="M8.50 22.60Q4.25 22.60 2.05 20.30Q0.25 18.50 0.25 15.70Q0.25 13.30 1.70 11.10Q2.40 9.95 3.45 9.07Q4.50 8.20 5.80 7.55Q7.90 6.50 10.28 5.95Q12.65 5.40 15.30 5.40Q17.20 5.40 19.85 5.75Q22.50 6.10 25.90 6.80Q30.05 7.60 32.90 8.07Q35.75 8.55 37.20 8.55Q38.05 8.55 38.90 8.40Q39.75 8.25 40.55 8.05Q43 7.40 43.30 6.15Q43.45 5.65 43.80 5.65Q44.10 5.65 44.10 5.95Q44.10 6.15 43.95 6.40Q42.90 8.70 39.70 9.65Q37.75 10.25 35.55 10.25Q34.75 10.25 32.20 9.95Q29.65 9.65 25.35 9Q22.40 8.50 20.08 8.27Q17.75 8.05 16.15 8.05Q10.60 8.05 7.05 10.40Q6.10 11.05 5.28 11.85Q4.45 12.65 3.80 13.65Q2.55 15.65 2.55 17.45Q2.55 19.45 3.98 20.57Q5.40 21.70 8.25 21.70Q11.90 21.70 16 18.80Q17.75 17.60 19.15 16.05Q20.55 14.50 21.65 12.50Q21.85 12.15 22.30 12.15Q22.75 12.15 22.60 12.55Q20.65 17.10 17 19.75Q15.05 21.15 12.95 21.88Q10.85 22.60 8.50 22.60M5.80 42.20Q3.30 42.20 1.55 41Q0 39.95 0 38.05Q0 36.70 0.90 35.75Q1.90 34.60 3.35 34.60Q4.30 34.60 5 35.30Q5.55 35.90 5.55 36.80Q5.55 38 4.70 38.75Q3.90 39.50 2.85 39.50Q1.95 39.50 1.25 38.80Q1.40 39.85 2.60 40.30Q3.35 40.60 4.20 40.60Q5.70 40.60 7.05 40.10Q8.40 39.60 9.55 38.70Q11.45 37.25 13.45 34.20Q14.65 32.40 15.93 30.25Q17.20 28.10 18.50 25.60Q14.05 26.20 10.90 27.25Q6.10 28.90 6.10 31.85Q6.10 33.70 7.65 34.50Q7.90 34.65 7.75 34.95Q7.60 35.20 7.35 35.10Q6.30 34.55 5.45 33.30Q4.65 32.05 4.65 30.70Q4.65 27.55 9.05 26.05Q12.20 24.95 19.10 24.50L21.50 19.85Q23.85 15.25 26.68 13Q29.50 10.75 32.55 10.75Q33.40 10.75 34.30 10.90Q34.65 11 34.65 11.15Q34.65 11.40 34.35 11.40Q34.10 11.40 33.80 11.35Q33.50 11.30 33.25 11.30Q28.20 11.30 25 19.30Q24.65 20.10 24.18 21.32Q23.70 22.55 23.05 24.20Q25.10 24.05 26.35 23.90Q27.15 22.20 29.60 20.90Q30.30 20.50 30.95 20.50Q32.20 20.50 32.20 21.60Q32.20 23.40 28.75 24.45Q28.05 24.60 27.05 24.75Q26.55 25.75 26.33 26.80Q26.10 27.85 26.05 29Q26.05 29.30 25.75 29.30Q25.45 29.25 25.40 28.95Q25.35 27.80 25.53 26.75Q25.70 25.70 26.05 24.85Q25.60 24.90 22.65 25.15Q18.30 35.95 12.55 40.05Q9.50 42.20 5.80 42.20ZM32.40 44.10Q31.70 44.10 31.08 43.98Q30.45 43.85 29.90 43.55Q28.55 42.80 28.55 41.15Q28.55 39.80 29.45 38.70Q30.45 37.55 31.75 37.55Q32.70 37.55 33.40 38.25Q34 38.85 34 39.65Q34 40.85 33.05 41.70Q32.20 42.40 31.25 42.40Q30.25 42.40 29.60 41.75Q30 42.95 32.15 42.95Q32.45 42.95 32.75 42.92Q33.05 42.90 33.35 42.85Q36.15 42.35 41.05 36.40Q44.15 32.70 49.75 24.40Q49.60 21.80 49.50 20.15Q49.40 18.50 49.30 17.70Q49.10 15.80 48.83 14.17Q48.55 12.55 48.15 11.15Q46.65 5.90 42.70 5.90Q39.20 5.90 37.05 9.55Q35.80 11.60 35.80 14Q35.80 15.95 36.70 18.15Q37.60 20.30 39.85 22.35Q41 23.35 42.15 24Q43.30 24.65 44.45 25Q44.80 25.05 44.80 25.30Q44.80 25.85 44.05 25.65Q41.20 24.80 38.75 23.20Q35.95 21.35 34.95 19.05Q34.10 16.95 34.10 14.95Q34.10 10.80 37.25 7.75Q40.30 4.80 43.90 4.80Q48.95 4.80 50.90 10.50Q51.60 12.50 52.10 14.80Q52.60 17.10 52.95 19.70Q54.65 17.20 55.95 15.50Q57.25 13.80 58.10 12.85Q67.70 2.05 74.30 2.05Q76.35 2.05 76.35 2.60Q76.35 2.95 76.10 2.95Q75.80 2.95 75.48 2.88Q75.15 2.80 74.85 2.80Q72.10 2.80 67.90 5.75Q64.05 8.40 59.85 13Q59.20 13.70 57.53 16.07Q55.85 18.45 53.20 22.55Q53.30 24.55 53.48 26.15Q53.65 27.75 53.80 29.05Q54.15 31.55 54.58 33.58Q55 35.60 55.55 37.10Q56.90 40.60 59.50 40.60Q61.65 40.60 62.75 38.35Q63.65 36.45 63.65 34.15Q63.65 32.80 63.45 31.38Q63.25 29.95 62.85 28.50Q62.65 27.75 62.95 27.75Q63.20 27.75 63.35 28.25Q64.65 31.90 64.65 35.25Q64.65 38.70 62.75 40.75Q60.80 42.85 58.20 42.85Q54.25 42.85 52.35 38.50Q50.50 34.15 49.95 27.40Q38.55 44.10 32.40 44.10Z"/></g></g></svg>